<?xml version="1.0" standalone="no"?><!DOCTYPE svg PUBLIC "-//W3C//DTD SVG 1.1//EN" "http://www.w3.org/Graphics/SVG/1.1/DTD/svg11.dtd"><svg t="1568289232981" class="icon" viewBox="0 0 1024 1024" version="1.1" xmlns="http://www.w3.org/2000/svg" p-id="3844" xmlns:xlink="http://www.w3.org/1999/xlink" width="64" height="64"><defs><style type="text/css"></style></defs><path d="M119.4 800.8c-27.9 0-55.8-27.9-55.8-55.8V175.3c0-33.6 27.9-55.8 55.8-55.8h753c33.6 0 55.8 27.9 55.8 61.5v399.2l-64-33.6v-363H128v441.1h253.8v5.7c-13.9 13.9-19.6 33.6-27.9 55.8H119.4V742h226.2c0 19.6 5.7 33.6 19.6 55.8v5.7c0.1-2.7-245.8-2.7-245.8-2.7z m192.7 97.6c-13.9 0-27.9-13.9-27.9-27.9 0-13.9 13.9-27.9 27.9-27.9h83.7c27.9 19.6 61.5 41.8 103.3 55.8h-187z m0 0" p-id="3845"></path><path d="M119.4 800.8c-27.9 0-55.8-27.9-55.8-55.8V175.3c0-33.6 27.9-55.8 55.8-55.8h753c33.6 0 55.8 27.9 55.8 61.5v399.2l-64-33.6v-363H128v441.1h253.8v5.7c-13.9 13.9-19.6 33.6-27.9 55.8H119.4V742h226.2c0 19.6 5.7 33.6 19.6 55.8v5.7c0.1-2.7-245.8-2.7-245.8-2.7z m192.7 97.6c-13.9 0-27.9-13.9-27.9-27.9 0-13.9 13.9-27.9 27.9-27.9h83.7c27.9 19.6 61.5 41.8 103.3 55.8h-187z m0 0" p-id="3846"></path><path d="M876.1 613.8C820.3 577.6 753.2 558 683.4 558c-69.7 0-136.9 22.2-192.6 55.8-55.8 33.6-83.7 75.4-83.7 117.2s27.9 83.7 83.7 117.2c55.8 36.2 122.9 55.8 192.6 55.8 67.1 0 136.9-19.6 192.6-55.8 55.8-33.6 83.7-75.4 83.7-117.2 0.1-41.8-27.8-83.6-83.6-117.2z m-44.3 197.5c-42.9 24.7-96.6 38.2-148.3 38.2-53.7 0-105.4-13.4-148.3-38.2-42.9-23-64.4-51.6-64.4-80.2s21.5-57.3 64.4-80.2c42.9-23 94.6-38.2 148.3-38.2 53.7 0 105.4 13.4 148.3 38.2 42.9 23 64.4 51.6 64.4 80.2s-21.5 57.2-64.4 80.2z" p-id="3847"></path><path d="M613.7 734c0 33.6 27.9 69.7 69.7 69.7 33.6 0 69.7-27.9 69.7-69.7 0-33.6-27.9-69.7-69.7-69.7-41.8 0-69.7 33.6-69.7 69.7zM379.2 344.4c0-5.7-5.7-13.9-13.9-13.9h-47.5c-12.6 0-13.9 13.9-13.9 13.9v159.1h75.4V344.4z m97.6-67.1c0-5.7-5.7-13.9-13.9-13.9h-47.5c-5.7 0-13.9 5.7-13.9 13.9v226.2h75.4V277.3z m95.1 225.5V399.5c0-5.7-5.7-13.9-13.9-13.9h-47.5c-5.7 0-13.9 5.7-13.9 13.9v103.3h75.3z m97.6 9V344.4c0-5.7-5.7-13.9-13.9-13.9H608c-5.7 0-13.9 5.7-13.9 13.9v159.1h75.4v8.3z" p-id="3848"></path></svg>